<svg width="15" height="16" viewBox="0 0 15 16" fill="none"
    xmlns="http://www.w3.org/2000/svg">
    <path stroke="#FFC211" stroke-width="1.3" d="M7.77643 0.808456L8.87298 1.84516V1.843L13.7318 6.43794L13.7321 6.43821C13.8502 6.54982 13.9444 6.68437 14.0087 6.83363L14.6056 6.57626L14.0087 6.83363C14.0731 6.98282 14.1063 7.14357 14.1064 7.30605C14.1064 7.30611 14.1064 7.30618 14.1064 7.30624V14.1555C14.1064 14.4723 13.9805 14.7761 13.7565 15.0001C13.5325 15.2241 13.2286 15.35 12.9118 15.35H11.0673C10.7505 15.35 10.4466 15.2241 10.2226 15.0001L9.76298 15.4597L10.2226 15.0001C9.99858 14.7761 9.87272 14.4723 9.87272 14.1555V11.0812C9.87272 10.7458 9.73947 10.424 9.50226 10.1868C9.26505 9.94963 8.94333 9.81637 8.60787 9.81637H6.14848C5.81302 9.81637 5.49131 9.94963 5.2541 10.1868L5.71372 10.6465L5.2541 10.1868C5.0169 10.424 4.88363 10.7458 4.88363 11.0812V14.1555C4.88363 14.4723 4.75778 14.7761 4.53376 15.0001C4.30974 15.2241 4.0059 15.35 3.68909 15.35H1.84455C1.52787 15.35 1.22415 15.2243 1.00016 15.0004C0.776197 14.7766 0.650254 14.473 0.65 14.1564L0.65 7.30728L0.65 7.30663C0.649839 7.14402 0.682883 6.98308 0.747106 6.83368C0.811306 6.68434 0.905312 6.54967 1.02337 6.43792C1.02341 6.43788 1.02345 6.43784 1.02349 6.4378L6.97984 0.808535L6.97993 0.808456C7.08756 0.706698 7.23006 0.65 7.37818 0.65C7.5263 0.65 7.6688 0.706698 7.77643 0.808456Z"/>
</svg>
