<svg width="179" height="37" viewBox="0 0 179 37" fill="none"
    xmlns="http://www.w3.org/2000/svg">
    <path d="M25.9452 5.07055L21.8105 0.00802994V13.2839C19.1023 13.2839 16.9053 15.4787 16.9053 18.1847H6.94981L17.6714 5.07055V5.06446L19.2375 3.14835L16.6666 -0.000278473L0 18.1847L16.5325 36.3613L16.6738 36.1885L1.80642 18.1847H6.94815L17.7861 31.4445L17.7883 31.434L21.8061 36.3613V22.9946C19.5527 22.5559 17.8493 20.5678 17.8493 18.1847C17.8493 15.6343 19.7936 13.5404 22.2792 13.3C24.7653 13.5404 26.7113 15.6343 26.7113 18.1847H36.6624L25.9491 5.06833L25.9452 5.07055Z" fill="white"/>
    <path d="M27.1104 -3.43323e-05L26.9531 0.192188L41.8061 18.1849H36.6627L25.8258 31.4425V31.447L24.3789 33.2168L26.9536 36.3616L43.6147 18.1849L27.1104 -3.43323e-05Z" fill="white"/>
    <path d="M87.7525 18.5392V16.2248H93.3324C93.7861 16.2248 93.9672 16.3145 94.0348 16.3655C94.1716 16.4752 94.1833 16.6214 94.1833 16.802V17.9592C94.1833 18.2029 94.1678 18.3187 94.0309 18.4079C93.9534 18.4444 93.7661 18.5392 93.2831 18.5392H87.7525ZM94.3677 20.904C94.6597 20.904 95.6529 20.8702 96.2589 20.4658C96.9829 19.9656 97.0654 19.1906 97.0654 18.6488V16.1367C97.0654 15.6138 96.9918 14.8571 96.3509 14.3574C95.9504 14.0289 95.2779 13.8578 94.3677 13.8578H84.7224V24.7932H87.7525V20.904H89.8342C89.9755 21.0303 94.1456 24.7932 94.1456 24.7932H98.6353C98.6353 24.7932 94.6369 21.6202 93.7335 20.904H94.3677Z" fill="white"/>
    <path d="M57.0052 19.2532H62.8682V16.566H57.0052V14.2544H67.0555V11.57H53.5298V24.7932H67.1807V21.9598H57.0052V19.2532Z" fill="white"/>
    <path d="M79.2462 22.3038H72.4481V13.8578H69.4175V22.1476C69.4175 22.5935 69.4175 23.6449 70.0972 24.2371C70.537 24.6215 71.2433 24.7932 72.3861 24.7932H79.2838C80.4527 24.7932 81.1877 24.6171 81.6026 24.2332C82.0513 23.8233 82.279 23.1319 82.279 22.1697V13.8578H79.2462V22.3038Z" fill="white"/>
    <path d="M175.898 13.858C175.898 13.858 171.235 19.7359 170.862 20.2018C170.491 19.7359 165.827 13.858 165.827 13.858H163.472V24.7935H166.504V18.5178C167.243 19.4468 170.491 23.5388 170.491 23.5388H171.237C171.237 23.5388 174.484 19.4468 175.224 18.5178V24.7935H178.255V13.858H175.898Z" fill="white"/>
    <path d="M152.271 20.3115H157.345V17.9484H152.271V16.2251H160.941V13.8581H149.239V24.793H161.064V22.3035H152.271V20.3115Z" fill="white"/>
    <path d="M110.532 22.304H102.601V16.3469H110.532V22.304ZM110.592 13.858H102.44C101.335 13.858 100.629 14.0364 100.217 14.4225C99.5698 15.0146 99.5698 16.1115 99.5698 16.5801V22.0708C99.5698 22.4835 99.5698 23.582 100.162 24.1747C100.576 24.5896 101.355 24.7935 102.538 24.7935H110.592C111.447 24.7935 112.404 24.7442 112.971 24.147C113.562 23.526 113.562 22.5245 113.562 22.1949V16.5801C113.562 16.0826 113.562 15.0423 112.965 14.4723C112.323 13.858 111.11 13.858 110.592 13.858Z" fill="white"/>
    <path d="M143.647 17.824H136.159V13.8578H133.128V24.7932H136.159V20.4098H143.647V24.7932H146.679V13.8578H143.647V17.824Z" fill="white"/>
    <path d="M127.057 11.57H119.47C118.748 11.57 117.542 11.57 116.826 12.2563C116.057 12.9991 116.057 14.2826 116.057 14.8327V21.5294C116.057 22.0778 116.057 23.3624 116.824 24.1041C117.542 24.7932 118.748 24.7932 119.47 24.7932H127.057C127.777 24.7932 128.984 24.7932 129.7 24.1041C130.47 23.3624 130.47 22.0778 130.47 21.5294V19.8199H126.995V21.9598H119.53V14.4034H126.995V16.3466H130.47V14.8327C130.47 14.2826 130.47 12.9991 129.7 12.258C128.984 11.57 127.777 11.57 127.057 11.57Z" fill="white"/>
</svg>
